<?xml version="1.0" standalone="no"?>
<!DOCTYPE svg PUBLIC "-//W3C//DTD SVG 20010904//EN"
 "http://www.w3.org/TR/2001/REC-SVG-20010904/DTD/svg10.dtd">
<svg version="1.0" xmlns="http://www.w3.org/2000/svg"
 width="691.000000pt" height="787.000000pt" viewBox="0 0 691.000000 787.000000"
 preserveAspectRatio="xMidYMid meet">
<metadata>
Created by potrace 1.16, written by Peter Selinger 2001-2019
</metadata>
<g transform="translate(0.000000,787.000000) scale(0.100000,-0.100000)"
fill="#000000" stroke="none">
<path d="M0 3935 l0 -3935 3455 0 3455 0 0 3935 0 3935 -3455 0 -3455 0 0
-3935z m3630 2435 c1102 -84 2019 -858 2264 -1910 87 -374 84 -772 -8 -1145
-62 -248 -179 -519 -323 -745 -177 -276 -485 -577 -778 -761 -173 -108 -427
-225 -590 -272 -338 -96 -442 -111 -770 -111 -298 0 -404 12 -650 75 -811 207
-1490 833 -1748 1614 -79 238 -115 440 -124 691 -15 433 76 837 274 1216 47
90 93 172 102 183 10 11 39 52 66 90 163 239 422 490 682 661 473 313 1032
457 1603 414z"/>
<path d="M3180 6343 c-207 -19 -484 -87 -696 -168 -843 -326 -1454 -1125
-1545 -2019 -15 -154 -7 -508 15 -631 86 -477 264 -858 567 -1210 407 -474
974 -775 1614 -856 142 -18 481 -16 640 4 962 121 1790 819 2062 1737 71 239
84 330 90 610 6 279 -2 385 -44 585 -188 900 -901 1637 -1815 1875 -217 57
-340 72 -603 75 -132 1 -260 1 -285 -2z m160 -136 c33 -57 38 -62 69 -62 32 0
37 5 69 63 18 34 37 62 42 62 4 0 19 -26 33 -58 50 -111 83 -116 147 -21 23
32 45 59 50 59 4 0 18 -29 30 -65 36 -109 71 -116 141 -30 24 30 48 53 54 51
5 -1 15 -27 22 -57 29 -119 59 -129 138 -49 27 28 55 50 61 50 7 0 15 -25 19
-62 13 -119 46 -134 136 -63 32 25 60 45 62 45 3 0 8 -35 12 -77 11 -119 31
-128 130 -63 33 22 63 40 68 40 5 0 6 -34 2 -75 -6 -65 -5 -79 10 -95 24 -26
27 -26 108 16 38 19 71 33 74 30 3 -3 1 -37 -6 -76 -19 -116 5 -133 119 -84
33 15 63 24 67 20 4 -3 -1 -38 -10 -77 -27 -112 -2 -130 118 -89 32 11 60 18
63 16 2 -3 -5 -33 -17 -67 -40 -119 -22 -141 93 -114 38 8 71 13 74 10 3 -3
-5 -29 -17 -58 -54 -120 -40 -144 74 -130 42 5 78 7 80 4 3 -2 -11 -32 -30
-67 -58 -104 -48 -124 67 -124 48 0 78 -4 78 -10 0 -6 -18 -37 -41 -69 -62
-88 -41 -121 79 -121 74 0 78 -10 26 -61 -49 -47 -68 -84 -54 -109 6 -11 12
-20 14 -20 8 0 124 -22 140 -27 15 -4 10 -14 -38 -62 -83 -83 -76 -109 35
-139 34 -9 64 -21 65 -27 2 -5 -21 -28 -52 -49 -92 -67 -84 -103 34 -146 34
-12 62 -24 62 -26 0 -2 -29 -22 -64 -44 -101 -64 -100 -92 4 -141 39 -18 70
-35 70 -39 0 -3 -28 -20 -61 -36 -111 -52 -112 -92 -4 -154 63 -36 63 -38 -17
-69 -108 -43 -112 -82 -13 -147 30 -20 55 -40 55 -44 0 -4 -32 -16 -71 -25
-115 -29 -124 -67 -32 -148 47 -42 53 -57 24 -57 -11 0 -43 -5 -71 -12 -94
-21 -98 -68 -16 -147 20 -19 36 -38 36 -42 0 -4 -32 -11 -71 -15 -118 -11
-131 -41 -62 -136 19 -26 32 -52 28 -58 -3 -5 -37 -10 -75 -10 -109 0 -122
-29 -60 -127 17 -26 30 -51 30 -55 0 -5 -29 -6 -64 -2 -124 13 -144 -11 -96
-115 17 -35 29 -66 26 -68 -2 -2 -34 1 -71 8 -115 20 -137 -8 -95 -119 28 -72
28 -72 -41 -51 -126 39 -150 15 -115 -119 14 -50 13 -53 -2 -47 -105 40 -134
46 -158 30 -27 -17 -29 -36 -14 -115 6 -29 8 -55 6 -57 -2 -2 -31 9 -65 26
-71 36 -91 38 -116 11 -15 -17 -17 -30 -11 -90 3 -39 2 -70 -3 -70 -5 0 -35
16 -67 35 -95 57 -121 43 -127 -70 -2 -39 -7 -69 -13 -68 -5 2 -29 18 -54 37
-89 67 -128 53 -137 -52 -3 -34 -10 -65 -15 -68 -4 -3 -31 15 -59 40 -86 77
-125 59 -145 -63 -4 -23 -10 -43 -14 -46 -3 -2 -31 20 -60 50 -78 79 -108 72
-140 -30 -25 -81 -26 -81 -78 -13 -33 45 -55 64 -73 66 -31 4 -40 -6 -72 -83
-14 -32 -29 -61 -34 -62 -6 -2 -25 24 -42 57 -52 98 -89 98 -148 -1 -18 -30
-37 -55 -41 -57 -5 -1 -19 21 -32 50 -29 69 -47 88 -81 88 -24 0 -35 -10 -70
-66 -23 -36 -45 -62 -49 -57 -4 4 -17 35 -30 68 -39 108 -64 113 -139 28 -57
-64 -62 -63 -80 20 -22 103 -61 113 -136 37 -27 -27 -55 -50 -61 -50 -7 0 -14
27 -19 68 -12 114 -41 126 -131 57 -31 -25 -61 -45 -66 -45 -4 0 -8 30 -8 68
0 73 -17 112 -49 112 -10 0 -46 -18 -80 -40 -34 -22 -64 -40 -66 -40 -3 0 -5
36 -5 79 0 59 -4 84 -16 95 -21 22 -25 21 -105 -20 -39 -19 -73 -33 -75 -31
-2 2 1 38 8 80 17 115 -4 129 -120 80 -34 -14 -65 -23 -68 -20 -3 3 2 38 12
77 29 109 5 128 -112 90 -36 -12 -68 -20 -71 -16 -3 3 6 38 21 77 41 112 22
132 -99 104 -37 -8 -70 -13 -73 -10 -3 3 8 35 26 71 37 75 38 85 14 107 -15
14 -32 16 -102 10 l-84 -6 21 34 c73 119 72 118 47 143 -11 12 -36 16 -95 16
-43 0 -79 3 -79 7 0 4 18 33 40 64 67 95 49 129 -70 129 -32 0 -61 4 -65 10
-3 5 17 34 45 65 76 83 62 118 -52 131 -32 4 -61 11 -65 17 -3 5 20 34 51 65
82 80 73 102 -56 137 -32 9 -58 19 -58 23 0 4 26 25 56 47 97 69 94 98 -16
141 -38 15 -70 31 -70 35 0 5 24 23 54 39 102 58 103 88 4 140 -38 19 -68 38
-68 42 0 4 24 20 53 34 118 59 119 93 4 159 -26 15 -47 30 -47 35 0 4 33 20
73 36 67 27 72 31 75 61 3 29 -2 36 -57 75 -67 48 -70 58 -20 70 140 34 151
60 62 150 -63 64 -69 55 50 78 90 18 96 57 21 131 -60 59 -58 69 15 69 123 0
145 32 82 121 -23 32 -41 63 -41 69 0 6 28 10 72 10 114 0 132 29 73 120 -19
30 -35 59 -35 64 0 5 32 6 73 3 57 -5 78 -3 95 9 29 20 28 37 -8 113 -17 35
-29 66 -27 68 2 2 36 -3 76 -12 114 -24 136 5 91 122 -11 29 -16 54 -12 56 4
3 34 -4 67 -14 108 -34 138 -8 109 97 -9 35 -14 67 -11 70 3 4 25 -1 49 -11
70 -28 92 -33 117 -23 23 8 24 10 17 93 -3 47 -4 85 -2 85 2 0 34 -14 71 -31
56 -26 70 -30 91 -20 22 10 24 16 24 91 0 44 4 80 9 80 5 0 35 -16 67 -35 32
-19 66 -35 75 -35 32 0 49 40 49 112 0 38 3 68 8 68 4 0 34 -21 66 -45 33 -25
65 -45 73 -45 29 0 50 38 57 104 4 36 11 68 15 70 4 3 30 -17 56 -44 39 -40
56 -50 82 -50 38 0 46 12 64 98 7 34 16 62 20 62 4 0 29 -25 54 -55 36 -42 54
-55 75 -55 35 0 42 10 70 94 l23 70 21 -26 c12 -14 34 -42 49 -62 48 -62 93
-43 131 58 10 25 21 46 24 46 4 0 23 -28 42 -63z"/>
<path d="M3210 6099 c-408 -36 -829 -199 -1162 -450 -97 -73 -357 -329 -415
-409 -316 -435 -453 -839 -453 -1339 -2 -955 609 -1790 1538 -2100 256 -86
467 -115 782 -108 272 5 415 30 667 113 794 261 1378 955 1500 1779 23 159 23
455 -1 613 -80 534 -341 1007 -749 1358 -471 404 -1080 598 -1707 543z m286
-254 c61 -25 89 -77 92 -176 7 -158 -46 -214 -202 -214 -142 0 -196 37 -217
150 -23 123 28 223 126 251 56 15 150 10 201 -11z m334 -29 l45 -13 42 -109
c22 -59 45 -110 50 -111 5 -2 20 33 32 77 13 44 28 83 33 86 17 11 108 -19
108 -35 0 -9 -23 -96 -52 -193 -58 -196 -57 -195 -131 -165 -29 13 -36 24 -71
125 -21 62 -42 112 -46 112 -4 0 -18 -37 -30 -82 -13 -46 -26 -87 -30 -91 -7
-8 -120 19 -120 29 0 21 116 384 123 384 1 0 22 -6 47 -14z m-850 -30 c21 -56
20 -58 -60 -78 -100 -25 -134 -56 -127 -117 9 -86 66 -126 140 -101 44 16 58
40 37 65 -9 11 -18 11 -42 3 -33 -12 -58 6 -58 42 0 16 118 60 161 60 18 0 76
-168 66 -193 -3 -8 -36 -30 -74 -49 -91 -44 -197 -51 -257 -16 -79 46 -123
196 -82 276 36 69 150 128 254 131 26 1 34 -4 42 -23z m-444 -333 c96 -64 174
-120 174 -124 0 -9 -85 -69 -97 -69 -4 0 -19 9 -33 20 -34 26 -53 25 -101 -7
-41 -27 -41 -28 -36 -75 6 -47 6 -48 -38 -78 -55 -38 -62 -38 -70 3 -4 17 -25
111 -46 206 -31 137 -37 177 -27 182 7 5 29 19 48 33 19 14 39 25 44 26 5 0
87 -53 182 -117z m2051 16 c43 -21 143 -110 143 -126 -1 -4 -14 -24 -30 -43
l-30 -34 -30 36 c-35 42 -95 82 -110 73 -18 -11 -11 -29 30 -83 47 -64 58
-108 36 -150 -51 -99 -153 -97 -267 6 -71 64 -76 76 -44 118 32 42 37 42 66
-1 45 -66 129 -107 129 -62 0 8 -14 33 -31 57 -69 95 -72 147 -13 200 42 37
88 39 151 9z m-2474 -234 c35 -22 49 -49 56 -100 5 -30 11 -41 26 -43 44 -7
125 -33 125 -40 0 -4 -17 -26 -39 -49 l-38 -42 -56 16 c-97 27 -126 -6 -57
-66 l44 -38 -41 -43 -41 -44 -118 97 c-208 169 -191 152 -174 181 35 58 162
186 193 194 38 10 83 2 120 -23z m2807 -66 l33 -42 -48 -42 c-47 -41 -48 -42
-24 -48 13 -4 50 -7 83 -7 55 0 61 -2 93 -37 70 -76 69 -76 -51 -71 -70 3
-109 1 -115 -6 -4 -6 -25 -62 -45 -123 -21 -62 -41 -115 -46 -118 -5 -3 -25
15 -45 40 l-37 45 31 85 c37 103 37 91 5 99 -21 6 -36 -1 -72 -29 -25 -19 -48
-35 -52 -35 -11 0 -70 78 -70 92 1 14 297 238 315 238 6 0 27 -19 45 -41z
m-655 -196 c266 -200 454 -508 521 -853 27 -138 25 -380 -5 -517 -117 -554
-519 -957 -1086 -1089 -113 -27 -433 -27 -555 -1 -900 192 -1369 1137 -975
1962 54 114 134 233 213 320 91 99 262 243 262 220 0 -3 -34 -40 -76 -82 -288
-290 -400 -680 -329 -1138 65 -415 290 -736 620 -886 87 -39 108 -32 28 10
-128 68 -267 198 -360 336 -206 306 -280 783 -177 1144 29 101 121 291 165
341 35 39 34 36 -15 -76 -65 -148 -79 -218 -80 -409 -1 -201 15 -276 94 -442
63 -133 136 -237 235 -339 77 -78 198 -174 220 -174 5 0 24 21 40 48 27 43 30
55 30 132 0 78 -3 92 -38 165 -53 110 -95 152 -111 109 -3 -9 -6 -52 -6 -96 0
-66 -2 -78 -13 -69 -43 35 -67 264 -43 409 12 71 -2 67 -61 -15 -38 -54 -49
-64 -51 -47 -9 62 52 223 127 334 17 25 26 47 21 48 -6 2 -49 -22 -96 -53 -47
-31 -88 -55 -91 -52 -28 29 148 251 256 323 40 26 54 54 29 54 -7 0 -53 -7
-103 -15 -143 -23 -151 -16 -47 38 84 44 183 75 270 83 78 8 116 20 107 34 -3
5 -45 30 -93 55 -48 25 -108 61 -134 80 -48 35 -63 61 -30 51 268 -76 526
-135 538 -124 3 4 -14 30 -38 60 -49 60 -92 127 -86 133 4 4 663 -438 688
-461 13 -13 13 -16 1 -24 -29 -18 47 -72 148 -105 30 -10 65 -29 78 -43 28
-30 40 -86 23 -107 -20 -24 -80 -18 -123 11 -21 14 -41 24 -43 21 -9 -8 79
-77 98 -77 10 0 18 -4 18 -8 0 -26 -89 -72 -138 -72 -27 0 -28 2 -28 48 1 45
-1 48 -38 66 -68 33 -285 32 -424 -1 -20 -5 -23 -2 -20 15 4 27 -2 27 -65 4
-28 -11 -65 -22 -81 -26 l-29 -7 6 42 c5 35 2 45 -18 65 -34 34 -51 30 -82
-18 -22 -33 -28 -53 -28 -97 1 -125 81 -223 315 -391 143 -102 219 -177 262
-256 31 -57 58 -152 58 -201 0 -18 3 -33 6 -33 16 0 153 125 209 191 295 350
369 750 208 1133 -52 125 2 53 71 -94 211 -449 97 -1116 -251 -1464 -73 -74
-178 -153 -256 -193 -69 -35 -52 -39 28 -8 348 140 574 446 651 885 28 158 26
411 -4 548 -61 271 -206 518 -401 677 -33 28 -61 54 -61 58 0 12 50 -20 145
-90z m-2372 -177 c119 -58 135 -134 62 -305 -26 -61 -51 -111 -54 -111 -16 0
-371 154 -371 161 0 16 101 223 118 242 48 54 150 60 245 13z m3330 -83 l19
-51 -52 -63 c-60 -72 -59 -73 43 -84 l69 -7 23 -51 c13 -29 20 -55 17 -58 -4
-4 -69 3 -146 14 l-139 21 -61 -22 c-81 -29 -80 -29 -104 28 -24 56 -25 54 58
86 50 18 64 32 145 132 50 61 94 110 99 109 5 -2 18 -26 29 -54z m-3518 -668
c0 -5 -29 -11 -65 -13 -71 -3 -90 -13 -90 -46 0 -36 20 -46 88 -46 55 0 63 -2
60 -17 -6 -28 -136 -20 -160 9 -24 28 -23 83 2 108 18 18 31 20 93 18 40 -2
72 -7 72 -13z m3610 -46 l0 -54 -83 -5 c-46 -3 -86 -2 -88 2 -9 14 36 28 90
28 l56 0 0 46 c0 32 4 44 13 42 7 -3 12 -24 12 -59z m-41 -150 c76 -35 43
-159 -43 -159 -66 0 -109 49 -96 109 12 54 77 78 139 50z m-3644 -42 c60 -18
75 -27 75 -42 0 -15 -20 -30 -75 -57 -41 -21 -78 -38 -82 -38 -16 0 -7 30 12
40 33 18 25 64 -14 86 -27 14 -32 34 -9 34 10 0 52 -10 93 -23z m100 -178 c0
-5 -25 -25 -56 -45 -31 -20 -54 -38 -51 -40 2 -3 30 -9 62 -14 58 -9 85 -23
72 -36 -10 -11 -181 17 -189 30 -14 20 -9 26 69 75 72 47 93 53 93 30z m3506
-25 c81 -39 42 -163 -48 -151 -64 9 -88 30 -88 80 0 78 57 108 136 71z m-82
-228 c72 -27 89 -52 28 -41 -38 6 -40 5 -51 -26 -6 -18 -11 -33 -11 -35 0 -2
14 -10 30 -19 37 -19 40 -40 5 -31 -67 17 -135 49 -135 63 0 10 6 13 16 9 52
-20 61 -18 73 15 15 44 15 46 -19 58 -33 11 -41 31 -12 30 9 0 44 -10 76 -23z
m-3336 -72 c-3 -18 -143 -78 -159 -69 -25 16 -16 22 86 61 73 28 77 28 73 8z
m42 -106 c0 -12 -12 -41 -26 -65 -30 -52 -25 -64 15 -40 35 20 71 22 71 4 0
-19 -151 -90 -164 -77 -7 7 -1 29 17 66 33 66 30 74 -18 51 -44 -21 -55 -21
-55 -2 0 14 121 83 148 85 6 0 12 -10 12 -22z m3140 -2 c0 -2 -7 -20 -15 -39
-18 -44 -13 -60 29 -82 39 -21 68 -10 91 36 21 39 39 28 22 -13 -29 -71 -95
-85 -151 -33 -30 28 -35 78 -10 113 13 19 34 30 34 18z m-3029 -186 c22 -13
52 -67 44 -80 -10 -17 -20 -11 -39 21 -26 45 -41 32 -41 -36 0 -56 -2 -60 -29
-69 -25 -10 -31 -7 -57 22 -26 29 -39 72 -22 72 3 0 19 -15 34 -32 35 -42 58
-29 40 23 -15 43 -14 46 9 69 23 23 33 24 61 10z m2910 -29 c-39 -55 -12 -80
40 -37 38 32 64 33 84 2 18 -27 9 -60 -24 -90 -30 -27 -35 -15 -11 26 18 31
19 37 5 48 -13 10 -19 10 -33 -2 -53 -47 -102 -42 -102 10 0 33 25 72 46 72
12 0 11 -6 -5 -29z m-2771 -152 c27 -32 39 -54 33 -60 -6 -6 -14 -4 -23 6 -19
23 -33 19 -86 -25 -27 -22 -53 -39 -58 -37 -24 8 -13 28 33 63 48 37 63 66 41
79 -14 9 -12 25 3 25 8 0 33 -23 57 -51z m2576 -100 c-32 -38 -32 -40 0 -78
29 -34 58 -39 86 -14 22 20 23 36 3 53 -12 10 -18 10 -31 -1 -14 -12 -16 -11
-13 5 7 36 35 43 64 16 31 -29 32 -50 1 -83 -33 -36 -68 -43 -104 -22 -67 40
-75 104 -19 151 39 33 48 15 13 -27z m-2442 -39 c20 -22 36 -46 36 -53 0 -22
-29 -56 -52 -59 -12 -2 -29 -16 -37 -32 -22 -38 -37 -30 -33 18 4 48 -14 63
-44 35 -17 -16 -23 -17 -32 -7 -8 10 4 28 48 76 32 34 63 62 68 62 5 0 26 -18
46 -40z m2355 -115 c70 -92 68 -96 -31 -69 -32 9 -61 14 -65 10 -3 -3 8 -24
25 -45 35 -44 38 -51 20 -51 -18 1 -110 122 -100 132 4 4 38 -1 75 -11 76 -22
81 -17 37 39 -27 33 -30 50 -10 50 4 0 26 -25 49 -55z m-2234 5 c4 -6 -10 -32
-29 -59 -38 -52 -43 -70 -24 -89 26 -26 57 -13 95 38 38 52 47 57 58 40 10
-16 -72 -119 -100 -126 -29 -7 -67 14 -91 52 -20 29 -12 54 37 116 32 39 43
45 54 28z m2050 -150 c41 -67 43 -101 4 -49 -52 69 -72 109 -56 109 9 0 32
-27 52 -60z m-1788 -14 c35 -30 23 -46 -16 -23 -41 24 -66 21 -91 -10 -29 -37
-22 -63 23 -92 51 -33 33 -55 -21 -26 -59 32 -67 90 -21 148 28 36 86 37 126
3z m1695 -52 c20 -38 33 -73 29 -77 -5 -5 -37 6 -71 22 -35 17 -65 29 -67 27
-2 -2 6 -25 17 -51 21 -48 21 -63 0 -50 -18 11 -80 144 -70 150 5 3 36 -8 68
-24 33 -17 62 -27 65 -24 4 3 -3 23 -13 44 -23 44 -25 62 -7 57 6 -2 29 -35
49 -74z m-1543 -15 c52 -22 73 -55 28 -44 -28 7 -38 -4 -62 -68 -19 -51 -31
-65 -46 -50 -6 6 1 34 17 73 l26 65 -21 13 c-24 16 -28 32 -7 32 7 0 36 -10
65 -21z m1327 -74 c37 -90 25 -116 -14 -33 -18 37 -32 75 -32 84 0 32 23 7 46
-51z m-1106 0 c36 -19 46 -54 31 -106 -17 -56 -50 -75 -101 -60 -52 15 -74 49
-65 97 13 72 72 102 135 69z m936 -2 c77 -100 107 -166 54 -118 -27 24 -82 10
-90 -23 -11 -50 -25 -19 -22 51 4 89 9 107 29 107 9 0 22 -8 29 -17z m-746
-33 c53 0 83 -69 44 -101 -11 -9 -14 -22 -9 -46 5 -26 3 -33 -10 -33 -8 0 -15
7 -15 15 0 8 -9 24 -21 36 -23 23 -49 12 -49 -22 0 -11 -7 -19 -16 -19 -14 0
-15 10 -9 73 8 82 20 111 42 103 8 -3 27 -6 43 -6z m572 -7 c20 -18 24 -63 7
-80 -8 -8 -7 -17 5 -34 31 -45 8 -56 -26 -13 -26 33 -63 30 -63 -6 0 -14 -4
-26 -10 -28 -13 -4 -33 70 -34 125 -1 40 0 42 32 46 63 8 71 7 89 -10z m-199
-18 c-1 -5 -12 -12 -25 -15 -22 -6 -23 -10 -20 -78 3 -61 1 -72 -12 -72 -12 0
-16 11 -17 43 -2 73 -12 102 -37 105 -33 5 -27 20 11 25 52 7 102 3 100 -8z"/>
<path d="M3311 5734 c-25 -32 -28 -101 -6 -144 29 -56 121 -50 153 10 17 32 8
116 -14 141 -28 31 -107 26 -133 -7z"/>
<path d="M2384 5383 c8 -58 11 -61 44 -42 38 21 37 41 -3 67 -47 30 -49 29
-41 -25z"/>
<path d="M1960 5113 l-32 -37 33 -27 c41 -35 50 -35 76 -6 33 35 37 63 14 86
-30 30 -55 26 -91 -16z"/>
<path d="M3740 4634 c0 -4 15 -26 33 -50 30 -40 35 -43 80 -44 26 0 47 4 47 9
0 5 -36 28 -80 50 -44 23 -80 39 -80 35z"/>
<path d="M1701 4697 c-6 -8 -18 -30 -26 -51 l-15 -37 42 -18 c164 -69 159 -67
174 -47 25 35 28 84 8 107 -45 50 -156 78 -183 46z"/>
<path d="M5176 3814 c-37 -36 -15 -83 41 -91 46 -6 73 14 73 52 0 46 -80 74
-114 39z"/>
<path d="M1605 3770 c-15 -24 17 -38 45 -20 13 9 13 11 0 20 -19 13 -37 13
-45 0z"/>
<path d="M5130 3569 c-20 -36 -4 -67 39 -80 53 -16 81 0 81 46 0 40 -20 55
-74 55 -26 0 -38 -6 -46 -21z"/>
<path d="M2179 2664 c-17 -21 0 -49 32 -49 29 0 36 26 14 49 -20 20 -29 20
-46 0z"/>
<path d="M2918 2243 c-24 -28 -29 -67 -12 -91 33 -48 94 -12 94 55 0 49 -51
71 -82 36z"/>
<path d="M3910 2215 c0 -36 5 -41 29 -26 12 8 12 13 -3 35 -22 34 -26 33 -26
-9z"/>
<path d="M3145 2190 c-9 -29 6 -42 41 -38 23 2 29 8 29 28 0 35 -60 43 -70 10z"/>
<path d="M3674 2206 c-12 -31 1 -51 30 -49 37 3 50 16 41 42 -8 25 -62 30 -71
7z"/>
</g>
</svg>
