<?xml version="1.0" standalone="no"?>
<!DOCTYPE svg PUBLIC "-//W3C//DTD SVG 20010904//EN"
 "http://www.w3.org/TR/2001/REC-SVG-20010904/DTD/svg10.dtd">
<svg version="1.0" xmlns="http://www.w3.org/2000/svg"
 width="861.732708pt" height="843.627686pt" viewBox="-177.415558 -173.688053 861.732708 843.627686"
 preserveAspectRatio="xMidYMid meet">
<metadata>
Created by potrace 1.16, written by Peter Selinger 2001-2019
</metadata>
<g transform="translate(-89.617983,638.468669) scale(0.100000,-0.100000)"
fill="#e8d6aa" stroke="none">
<path d="M3352 6381 c-34 -3 -63 -10 -65 -16 -3 -13 123 -25 183 -18 69 8 267
-15 457 -52 982 -194 1753 -950 1957 -1918 21 -99 43 -131 38 -54 -1 23 -16
99 -33 169 -153 654 -609 1241 -1228 1582 -322 178 -680 280 -1051 301 -58 3
-125 7 -150 9 -25 2 -73 0 -108 -3z"/>
<path d="M3155 6360 c-3 -5 0 -13 8 -16 23 -8 82 0 82 11 0 14 -82 19 -90 5z"/>
<path d="M2985 6345 c-134 -22 -386 -93 -447 -126 -12 -7 -28 -14 -34 -15 -30
-5 -61 -18 -76 -32 -10 -8 -18 -12 -18 -8 0 3 -14 -1 -30 -9 -17 -9 -28 -20
-25 -25 4 -6 19 -3 38 7 18 9 40 18 50 20 10 2 32 11 50 20 18 9 40 18 49 20
9 1 59 16 110 32 134 41 207 59 350 84 125 22 166 40 98 44 -19 1 -71 -4 -115
-12z"/>
<path d="M3260 6206 c-43 -97 -81 -99 -140 -6 -40 62 -50 60 -75 -18 -36 -109
-62 -115 -142 -31 -54 57 -67 53 -79 -27 -8 -56 -37 -94 -65 -87 -11 3 -45 28
-75 55 l-54 50 -10 -27 c-5 -14 -10 -40 -10 -56 0 -16 -6 -45 -14 -64 l-15
-34 -30 9 c-17 5 -51 25 -76 45 -51 42 -65 39 -65 -13 0 -20 -5 -55 -10 -77
-5 -22 -5 -44 -1 -48 9 -9 144 47 172 70 9 7 18 11 21 8 6 -6 166 51 184 65 6
6 13 8 16 5 3 -3 45 4 94 16 312 74 672 79 1002 13 857 -170 1566 -858 1742
-1689 12 -55 24 -107 27 -115 7 -19 9 -52 18 -245 8 -159 18 -202 40 -172 5 8
39 29 73 46 35 18 62 37 60 42 -2 6 -33 25 -68 43 -90 43 -91 72 -5 130 32 23
59 45 60 50 0 5 -31 22 -69 37 -111 45 -111 64 4 150 42 31 32 53 -28 64 -119
22 -130 53 -45 132 67 61 65 69 -28 84 -106 19 -113 38 -42 124 l46 58 -18 13
c-10 8 -42 14 -71 14 -99 0 -110 31 -44 120 51 69 44 80 -55 80 -106 0 -114
19 -50 120 39 62 31 71 -66 68 -107 -4 -114 5 -70 97 40 86 34 93 -58 75 -108
-20 -121 -2 -81 114 23 69 15 76 -57 52 -62 -21 -112 -21 -120 1 -3 9 1 45 11
80 24 90 14 101 -61 68 -109 -49 -133 -33 -114 73 17 89 9 94 -79 52 -94 -45
-104 -39 -108 61 -4 95 -9 99 -79 55 -97 -60 -123 -46 -123 64 0 79 -14 85
-77 32 -88 -73 -116 -64 -128 40 -11 95 -18 98 -86 33 -31 -30 -63 -55 -69
-55 -31 0 -48 22 -60 79 -19 91 -31 95 -93 27 -74 -79 -93 -76 -129 24 -13 35
-28 65 -35 67 -6 2 -32 -23 -58 -56 -65 -85 -83 -84 -130 10 -41 81 -48 82
-91 10 -52 -90 -80 -89 -133 4 -17 30 -36 55 -42 55 -5 0 -23 -29 -39 -64z"/>
<path d="M2210 5938 c-1 -2 -1 -41 -2 -88 -1 -98 -5 -97 94 -39 73 43 79 57
33 72 -15 5 -44 20 -63 33 -29 20 -61 31 -62 22z"/>
<path d="M3277 5856 c-98 -36 -144 -159 -107 -285 31 -108 212 -167 329 -107
127 66 139 294 19 374 -49 32 -178 42 -241 18z m160 -122 l25 -25 -4 -61 c-5
-70 -21 -88 -80 -88 -57 0 -78 26 -78 98 0 77 18 99 83 101 17 1 38 -9 54 -25z"/>
<path d="M3772 5818 c-10 -13 -21 -45 -86 -259 -37 -125 -35 -131 51 -145 48
-7 54 0 78 86 9 36 20 69 23 74 3 5 21 -35 39 -90 40 -113 51 -130 105 -146
32 -9 41 -9 52 3 18 19 120 365 112 378 -9 13 -105 42 -117 35 -5 -3 -21 -44
-35 -91 l-27 -85 -40 107 c-25 67 -48 112 -61 121 -34 22 -80 28 -94 12z"/>
<path d="M2018 5815 c-3 -3 -1 -27 4 -53 5 -26 8 -61 6 -79 -4 -49 4 -48 81 8
74 54 83 66 54 75 -10 3 -42 16 -71 30 -54 25 -65 28 -74 19z"/>
<path d="M2880 5806 c-150 -33 -230 -121 -217 -237 16 -129 110 -209 233 -196
61 6 163 49 193 81 l21 22 -26 84 c-35 117 -35 117 -130 88 -65 -20 -80 -28
-82 -47 -6 -37 16 -53 60 -46 l38 7 0 -26 c0 -46 -101 -65 -139 -27 -26 26
-41 83 -32 118 8 33 77 72 141 80 56 8 66 24 43 70 -21 44 -28 46 -103 29z"/>
<path d="M1838 5675 c-4 -4 0 -28 8 -53 7 -26 14 -61 14 -79 0 -50 13 -47 86
21 48 44 64 66 54 69 -8 2 -37 12 -65 22 -66 23 -89 28 -97 20z"/>
<path d="M2298 5540 c-27 -17 -48 -36 -48 -43 -1 -28 84 -393 94 -404 9 -10
22 -5 60 19 l48 32 -6 47 -7 48 47 32 47 32 42 -23 43 -23 45 26 c62 37 63 41
20 74 -75 57 -312 213 -325 213 -7 0 -34 -14 -60 -30z m154 -158 c8 -9 6 -16
-8 -27 -37 -28 -48 -21 -59 39 l-8 39 32 -19 c18 -11 37 -25 43 -32z"/>
<path d="M1675 5521 c-3 -6 4 -34 15 -63 11 -29 20 -63 20 -75 0 -40 16 -33
84 36 70 71 73 81 20 81 -18 0 -43 4 -56 9 -45 16 -77 21 -83 12z"/>
<path d="M4464 5490 c-34 -13 -74 -73 -74 -109 0 -35 19 -78 56 -127 61 -80 4
-87 -71 -9 -61 64 -64 65 -93 25 -32 -42 -28 -56 32 -115 107 -104 200 -122
262 -50 52 60 48 114 -15 193 -66 83 -27 97 56 20 l55 -53 29 33 c39 44 37 51
-26 111 -81 77 -153 105 -211 81z"/>
<path d="M1526 5351 c-4 -5 5 -33 19 -60 14 -28 25 -61 25 -75 0 -39 17 -39
47 0 15 20 41 52 56 70 36 42 31 50 -35 58 -29 3 -65 9 -79 12 -15 3 -30 1
-33 -5z"/>
<path d="M1972 5253 c-19 -9 -53 -39 -75 -66 -23 -27 -59 -69 -80 -94 -32 -38
-36 -47 -25 -61 25 -30 290 -242 302 -242 7 0 27 18 46 41 l32 41 -37 38 c-60
62 -37 83 62 58 l46 -11 39 41 c55 60 51 68 -48 91 l-52 12 -5 41 c-12 92
-123 152 -205 111z m76 -125 c24 -24 2 -88 -33 -102 -14 -5 -75 38 -75 54 0
41 79 77 108 48z"/>
<path d="M4711 5102 c-85 -65 -156 -122 -158 -128 -4 -13 65 -94 80 -94 7 0
30 14 51 30 38 29 86 40 86 21 0 -6 -12 -42 -26 -81 -29 -81 -27 -100 15 -150
39 -46 49 -36 95 99 20 58 39 107 42 110 3 3 51 6 107 6 59 0 102 4 104 10 2
6 -16 33 -40 60 l-44 49 -77 4 c-88 5 -89 7 -36 45 22 16 40 34 40 41 0 17
-62 96 -75 96 -5 -1 -79 -54 -164 -118z"/>
<path d="M1268 5193 c-8 -10 -22 -31 -30 -48 -16 -32 -83 -157 -127 -240 -116
-214 -213 -666 -215 -1005 -4 -758 330 -1448 938 -1936 307 -247 791 -466
1121 -509 28 -3 91 -13 140 -21 96 -16 250 -16 250 1 0 6 -73 17 -166 27
-1355 135 -2350 1311 -2240 2648 28 333 152 733 311 996 31 52 48 90 43 95 -6
6 -15 2 -25 -8z"/>
<path d="M1393 5164 c-2 -7 10 -34 26 -61 57 -92 39 -123 -72 -123 -35 0 -66
-3 -70 -6 -3 -4 12 -31 33 -62 68 -94 59 -115 -58 -127 -80 -9 -83 -15 -28
-76 73 -82 63 -110 -47 -129 -37 -7 -70 -16 -73 -21 -3 -5 20 -33 51 -63 79
-74 75 -93 -24 -126 -41 -14 -76 -30 -78 -36 -2 -6 21 -30 51 -52 89 -68 86
-93 -18 -134 -78 -31 -79 -41 -7 -85 95 -59 93 -87 -11 -139 -80 -40 -80 -48
7 -88 91 -42 91 -69 0 -129 -65 -42 -63 -55 10 -85 107 -43 111 -62 25 -129
-33 -26 -59 -51 -57 -57 2 -6 37 -22 78 -36 100 -34 103 -52 23 -126 -67 -62
-65 -70 20 -84 117 -19 125 -39 49 -128 l-47 -55 19 -13 c11 -8 43 -14 76 -14
97 0 110 -28 49 -110 -57 -76 -53 -84 50 -90 l85 -5 3 -23 c2 -12 -12 -48 -33
-82 -20 -33 -33 -64 -30 -70 4 -7 41 -10 93 -8 l87 3 3 -23 c2 -13 -10 -52
-27 -88 -36 -77 -31 -83 56 -65 117 23 128 13 93 -91 -31 -90 -24 -98 67 -71
107 32 121 16 89 -104 -19 -71 -7 -80 64 -47 31 14 67 24 85 22 l30 -3 0 -81
c0 -45 3 -85 6 -89 4 -3 34 7 68 24 102 52 114 45 112 -65 -2 -92 8 -99 81
-50 91 62 118 50 118 -54 0 -85 16 -93 81 -41 87 69 129 48 129 -65 0 -16 6
-38 13 -48 l12 -17 47 45 c60 58 83 70 106 57 17 -9 42 -70 42 -103 0 -8 7
-23 15 -34 l15 -19 53 58 c75 79 100 75 132 -25 29 -87 37 -89 84 -19 23 33
50 65 61 71 30 16 17 27 -42 34 -1024 131 -1809 884 -1965 1886 -26 168 -23
479 6 659 47 295 167 608 322 837 28 42 49 78 46 80 -11 11 -180 9 -184 -2z"/>
<path d="M4157 5043 c-4 -3 35 -49 86 -102 300 -314 415 -706 337 -1154 -71
-417 -261 -698 -575 -855 -102 -51 -147 -63 -75 -21 349 205 546 547 591 1028
23 247 -35 535 -142 705 -44 70 -53 45 -18 -53 102 -288 69 -601 -93 -876 -79
-134 -247 -327 -318 -365 -22 -12 -23 -8 -35 82 -17 132 -104 238 -335 409
-85 64 -176 139 -202 168 -86 96 -112 225 -59 299 40 57 98 31 87 -40 -10 -59
25 -60 157 -3 15 6 18 4 15 -11 -3 -21 -19 -21 223 -8 208 10 263 -8 264 -90
l0 -41 37 1 c42 1 128 48 128 69 0 8 -15 21 -32 29 -18 8 -44 24 -58 36 -21
18 -17 17 21 -4 54 -31 88 -33 119 -8 49 39 -4 127 -98 162 -111 42 -154 70
-147 100 l6 26 -208 139 c-114 77 -268 182 -342 233 -173 118 -191 111 -81
-33 42 -54 47 -65 31 -65 -33 0 -158 29 -334 76 -157 43 -197 48 -197 25 0
-12 119 -92 199 -133 79 -41 79 -51 -1 -60 -132 -15 -285 -65 -343 -112 -48
-39 -25 -49 75 -31 47 8 96 15 110 15 l25 -1 -35 -27 c-153 -117 -302 -311
-260 -337 6 -4 47 18 92 49 45 31 83 54 86 52 2 -3 -14 -31 -37 -64 -73 -108
-137 -291 -111 -316 9 -8 19 -3 39 23 14 18 36 45 49 60 l23 26 -6 -45 c-17
-130 -18 -221 0 -292 37 -154 75 -168 75 -27 0 85 9 100 39 70 57 -57 118
-231 106 -304 -9 -53 -53 -137 -73 -137 -25 0 -145 96 -224 178 -309 323 -401
741 -251 1141 38 103 34 138 -9 73 -311 -469 -221 -1233 192 -1626 75 -71 116
-102 226 -173 10 -7 -8 -1 -40 13 -396 169 -631 593 -630 1139 0 355 102 625
325 860 43 45 66 76 59 80 -6 4 -19 1 -28 -7 -320 -267 -482 -529 -542 -875
-180 -1038 800 -1884 1810 -1561 472 151 827 548 936 1049 29 129 26 427 -5
569 -56 261 -183 490 -384 692 -102 103 -226 196 -240 181z m-273 -494 c-14
-23 -66 -8 -99 29 -51 54 -43 58 35 16 38 -20 67 -40 64 -45z"/>
<path d="M1722 4830 c-53 -12 -91 -57 -143 -167 -60 -124 -60 -128 -6 -153
103 -47 307 -130 322 -130 33 0 122 233 111 292 -18 98 -174 185 -284 158z
m109 -147 c59 -30 71 -59 50 -116 -14 -35 -31 -34 -124 6 -91 40 -91 40 -83
65 24 74 71 88 157 45z"/>
<path d="M5095 4662 l-86 -109 -65 -23 c-76 -26 -83 -37 -59 -91 28 -60 34
-62 108 -34 l66 24 137 -20 c158 -23 165 -21 136 45 -23 52 -41 62 -124 71
-70 8 -70 8 -13 74 25 29 45 62 45 74 -1 28 -31 89 -47 94 -6 2 -50 -45 -98
-105z"/>
<path d="M5927 4183 c-10 -16 -2 -553 8 -556 29 -7 41 309 19 498 -6 50 -17
74 -27 58z"/>
<path d="M1546 4048 c-40 -35 -43 -78 -11 -116 l27 -32 63 0 c42 0 66 5 74 14
17 20 0 28 -73 35 l-61 6 0 30 0 30 60 3 c70 4 97 19 69 39 -30 22 -119 17
-148 -9z"/>
<path d="M5296 4053 c-3 -3 -6 -21 -6 -38 l0 -32 -72 -9 c-54 -7 -73 -13 -73
-24 0 -12 17 -16 82 -18 l82 -3 11 21 c18 34 -2 124 -24 103z"/>
<path d="M5184 3860 c-56 -22 -72 -103 -29 -145 55 -56 165 -19 165 55 0 71
-70 117 -136 90z m82 -48 c17 -11 22 -35 13 -59 -13 -34 -95 -34 -110 1 -18
38 3 66 49 66 20 0 42 -4 48 -8z"/>
<path d="M1527 3833 c-14 -14 -6 -34 18 -45 32 -14 33 -53 3 -77 -21 -18 -18
-41 5 -41 7 0 45 16 85 35 113 54 109 77 -20 113 -87 25 -82 24 -91 15z"/>
<path d="M5686 3788 c-3 -7 -7 -48 -11 -90 -6 -77 2 -101 25 -73 6 7 33 21 60
30 67 22 78 38 45 62 -15 10 -46 33 -71 51 -30 22 -46 28 -48 20z"/>
<path d="M1633 3604 c-108 -68 -100 -91 41 -114 72 -12 94 -5 83 23 -4 10 -29
18 -69 24 l-63 9 53 33 c33 21 52 39 50 49 -5 27 -21 23 -95 -24z"/>
<path d="M5116 3601 c-56 -62 -10 -151 78 -151 80 0 121 101 60 149 -35 28
-114 29 -138 2z m112 -27 c42 -29 23 -84 -31 -84 -43 0 -67 17 -67 48 0 51 51
69 98 36z"/>
<path d="M5667 3583 c-7 -12 -29 -151 -25 -160 4 -9 5 -9 83 12 88 24 94 35
44 70 -23 17 -54 43 -69 58 -15 16 -30 25 -33 20z"/>
<path d="M5065 3400 c-8 -13 13 -40 31 -40 16 0 19 -37 5 -59 -6 -10 -19 -12
-44 -7 -37 7 -55 -5 -34 -22 24 -20 128 -54 145 -47 15 6 13 10 -11 29 -42 34
-30 81 19 73 21 -4 37 -1 44 8 13 16 10 18 -75 50 -76 29 -72 28 -80 15z"/>
<path d="M5621 3348 c-21 -56 -38 -128 -31 -133 9 -5 141 24 152 34 4 4 -19
33 -52 64 l-60 58 -9 -23z"/>
<path d="M1728 3297 c-65 -25 -84 -40 -73 -57 10 -15 47 -8 119 24 98 43 56
73 -46 33z"/>
<path d="M1779 3195 c-77 -39 -95 -57 -76 -73 9 -8 24 -6 55 8 l42 19 -30 -59
c-26 -52 -28 -60 -14 -71 19 -16 164 51 164 76 0 24 -25 28 -59 11 -43 -23
-44 -22 -14 39 24 48 25 57 13 69 -13 12 -24 10 -81 -19z"/>
<path d="M4968 3183 c-54 -60 -3 -153 83 -153 28 0 89 58 89 85 0 28 -21 26
-38 -5 -41 -74 -143 -35 -114 44 14 36 2 54 -20 29z"/>
<path d="M5564 3159 c-14 -22 -55 -122 -57 -139 -1 -10 5 -14 18 -12 11 2 45
7 75 11 84 10 87 16 38 70 -24 26 -48 56 -54 66 -9 16 -12 16 -20 4z"/>
<path d="M1905 3000 c-14 -15 -16 -29 -11 -65 9 -55 -9 -62 -37 -14 -17 31
-40 35 -45 8 -4 -21 39 -81 65 -90 16 -6 29 -2 48 13 l27 21 -6 49 c-8 55 -1
59 29 21 22 -27 45 -25 45 5 0 24 -50 72 -75 72 -12 0 -30 -9 -40 -20z"/>
<path d="M4863 2998 c-30 -38 -35 -59 -18 -84 19 -29 44 -31 78 -4 47 37 77
13 42 -34 -24 -32 -5 -39 26 -10 33 32 37 64 11 87 -25 23 -55 21 -77 -3 -23
-25 -55 -26 -55 -2 0 10 5 23 12 30 8 8 9 15 2 22 -8 8 -14 7 -21 -2z"/>
<path d="M5482 2967 c-19 -24 -73 -139 -68 -145 9 -8 150 -2 159 8 5 4 -7 32
-27 61 -20 30 -36 59 -36 66 0 18 -16 24 -28 10z"/>
<path d="M2044 2876 c-4 -10 -2 -22 5 -29 17 -17 14 -22 -39 -63 -27 -21 -50
-44 -50 -51 0 -30 32 -23 81 16 l52 41 19 -17 c13 -12 22 -13 29 -6 14 14 1
38 -50 87 -35 34 -41 37 -47 22z"/>
<path d="M4661 2749 c-42 -42 -41 -81 3 -125 53 -53 116 -42 151 25 l14 28
-29 28 c-17 17 -35 25 -44 22 -24 -9 -19 -26 9 -37 33 -12 32 -36 -2 -53 -71
-36 -121 39 -68 101 22 27 24 42 4 42 -4 0 -21 -14 -38 -31z"/>
<path d="M5342 2718 c-23 -35 -38 -66 -34 -69 13 -12 150 -21 157 -9 3 5 -3
23 -15 39 -11 17 -27 46 -35 65 -20 48 -26 46 -73 -26z"/>
<path d="M2127 2672 c-31 -32 -57 -63 -57 -70 0 -22 30 -25 51 -6 28 25 45 6
31 -35 -14 -40 11 -67 34 -36 8 10 14 25 14 32 0 7 9 13 20 13 27 0 60 35 60
63 0 23 -66 97 -86 97 -5 0 -35 -26 -67 -58z m101 -29 c3 -17 -2 -23 -15 -23
-25 0 -43 19 -36 37 9 22 48 11 51 -14z"/>
<path d="M4535 2621 c-3 -6 9 -26 26 -45 17 -20 29 -42 26 -50 -11 -27 43 -51
58 -26 7 11 -80 130 -95 130 -5 0 -11 -4 -15 -9z"/>
<path d="M2301 2544 c-50 -70 -53 -102 -10 -138 33 -28 76 -34 100 -13 33 26
81 98 75 112 -9 25 -24 17 -58 -29 -38 -52 -52 -60 -79 -46 -27 15 -24 46 12
90 30 37 35 70 12 77 -6 2 -30 -22 -52 -53z"/>
<path d="M5217 2535 c-54 -61 -53 -62 35 -71 80 -8 87 0 54 65 -35 68 -36 68
-89 6z"/>
<path d="M4445 2550 c-8 -13 83 -122 96 -114 5 3 -3 21 -17 39 -26 34 -25 67
1 45 9 -8 15 -8 20 0 3 5 4 11 1 11 -14 3 -23 6 -49 17 -35 15 -44 15 -52 2z"/>
<path d="M4356 2491 c-9 -14 72 -133 85 -125 6 3 -1 25 -17 52 -34 61 -59 87
-68 73z"/>
<path d="M2502 2417 c-49 -51 -52 -89 -9 -132 34 -34 70 -45 82 -25 3 5 -10
19 -29 31 -40 23 -46 50 -20 87 18 25 59 29 88 7 21 -16 36 -11 36 11 0 19
-58 54 -91 54 -15 0 -37 -13 -57 -33z"/>
<path d="M4264 2426 c-3 -8 2 -29 11 -46 23 -44 16 -45 -49 -13 -76 37 -87 25
-48 -54 17 -32 37 -65 45 -72 24 -19 29 4 10 43 -23 49 -15 52 51 19 79 -38
87 -25 42 66 -36 70 -51 85 -62 57z"/>
<path d="M5070 2375 c-37 -38 -49 -56 -39 -59 8 -3 42 -13 77 -22 81 -22 91
-14 64 52 -11 27 -23 57 -26 67 -8 26 -17 22 -76 -38z"/>
<path d="M2705 2369 c-4 -5 1 -19 10 -29 l18 -19 -23 -61 c-16 -43 -20 -64
-12 -72 16 -16 31 -1 57 57 18 43 29 54 49 57 42 5 34 21 -25 50 -61 31 -65
32 -74 17z"/>
<path d="M4055 2338 c-7 -17 50 -148 64 -148 20 0 18 16 -8 84 -26 69 -46 91
-56 64z"/>
<path d="M2913 2290 c-64 -26 -73 -144 -13 -175 65 -34 120 -7 141 69 19 70
-58 134 -128 106z m76 -59 c7 -12 7 -30 0 -55 l-10 -36 -34 0 c-41 0 -55 32
-35 80 15 36 63 43 79 11z"/>
<path d="M3892 2288 c-5 -7 -13 -50 -17 -94 -8 -90 4 -115 30 -64 16 32 68 43
92 19 8 -8 13 -8 18 1 7 11 -81 141 -101 147 -6 2 -16 -2 -22 -9z"/>
<path d="M4927 2235 c-57 -52 -65 -75 -28 -75 10 0 38 -7 62 -15 25 -9 46 -12
51 -7 9 9 -9 130 -21 144 -3 3 -32 -18 -64 -47z"/>
<path d="M3115 2239 c-12 -33 -24 -154 -15 -163 14 -14 40 2 40 24 0 30 30 22
49 -14 22 -39 35 -38 39 3 2 19 10 44 18 55 35 51 3 96 -76 104 -36 3 -51 1
-55 -9z m79 -35 c30 -11 19 -44 -14 -44 -22 0 -30 5 -30 18 0 30 13 38 44 26z"/>
<path d="M3665 2243 c-34 -8 -36 -17 -24 -91 16 -95 40 -118 51 -48 5 30 24
30 52 -1 31 -34 54 -22 35 19 -8 19 -8 31 0 47 29 53 -34 94 -114 74z m63 -32
c23 -14 10 -46 -19 -49 -19 -2 -28 2 -32 17 -8 32 22 51 51 32z"/>
<path d="M3437 2223 c-13 -12 -7 -24 18 -33 l25 -10 0 -59 c0 -38 5 -63 14
-70 23 -19 35 14 29 79 l-5 56 26 12 c15 7 24 17 21 22 -7 11 -118 14 -128 3z"/>
<path d="M4752 2103 c-51 -37 -61 -48 -50 -58 19 -18 125 -58 136 -51 9 5 -5
136 -17 148 -3 3 -34 -14 -69 -39z"/>
<path d="M4581 1992 c-35 -20 -64 -41 -64 -47 0 -13 123 -86 134 -79 9 5 7
150 -2 159 -3 2 -33 -13 -68 -33z"/>
<path d="M4384 1891 c-72 -33 -84 -48 -52 -60 13 -5 40 -23 62 -40 60 -48 63
-45 67 53 5 82 3 84 -77 47z"/>
<path d="M4173 1811 c-89 -33 -92 -36 -53 -56 17 -9 49 -32 71 -52 47 -42 51
-40 65 40 6 34 13 68 15 76 6 23 -20 21 -98 -8z"/>
<path d="M3965 1751 c-38 -9 -70 -21 -70 -26 0 -19 124 -128 129 -114 2 8 13
43 24 79 28 90 30 88 -83 61z"/>
<path d="M3775 1714 c-38 -8 -76 -16 -83 -19 -15 -6 85 -138 101 -132 5 1 20
31 32 65 12 34 27 68 34 75 10 13 5 29 -8 26 -3 -1 -37 -8 -76 -15z"/>
<path d="M3445 1692 c-204 -2 -215 -4 -193 -30 8 -9 27 -43 41 -75 32 -70 40
-69 87 9 55 89 84 87 140 -12 16 -30 35 -54 40 -54 14 0 83 152 73 159 -5 3
-89 5 -188 3z"/>
<path d="M3665 1450 c-3 -5 0 -13 9 -16 21 -8 71 -1 71 11 0 14 -72 19 -80 5z"/>
</g>
</svg>
